<svg width="24" height="24" viewBox="0 0 24 24" fill="none" xmlns="http://www.w3.org/2000/svg">
<defs>
<clipPath id="undo-clip">
<rect x="0" y="0" width="14" height="24"/>
</clipPath>
</defs>
<path d="M13.9247 2.50391C14.7225 2.50391 15.4607 2.92638 15.8647 3.61428L16.6793 5.00086H18.75C20.5449 5.00086 22 6.45593 22 8.25086V17.7509C22 19.5458 20.5449 21.0009 18.75 21.0009H5.25C3.45507 21.0009 2 19.5458 2 17.7509V8.25086C2 6.45593 3.45507 5.00086 5.25 5.00086H7.33042L8.205 3.57656C8.61425 2.91006 9.34026 2.50391 10.1224 2.50391H13.9247ZM13.9247 4.00391H10.1224C9.89892 4.00391 9.6892 4.10337 9.54793 4.2717L9.48325 4.36146L8.38913 6.14331C8.25271 6.36547 8.01071 6.50086 7.75 6.50086H5.25C4.2835 6.50086 3.5 7.28436 3.5 8.25086V17.7509C3.5 18.7174 4.2835 19.5009 5.25 19.5009H18.75C19.7165 19.5009 20.5 18.7174 20.5 17.7509V8.25086C20.5 7.28436 19.7165 6.50086 18.75 6.50086H16.25C15.9841 6.50086 15.738 6.36003 15.6033 6.13073L14.5714 4.37403C14.4367 4.14473 14.1906 4.00391 13.9247 4.00391ZM12 8.00086C14.4853 8.00086 16.5 10.0156 16.5 12.5009C16.5 14.9861 14.4853 17.0009 12 17.0009C9.51472 17.0009 7.5 14.9861 7.5 12.5009C7.5 10.0156 9.51472 8.00086 12 8.00086ZM12 9.50086C10.3431 9.50086 9 10.844 9 12.5009C9 14.1577 10.3431 15.5009 12 15.5009C13.6569 15.5009 15 14.1577 15 12.5009C15 10.844 13.6569 9.50086 12 9.50086Z" fill="currentColor" clip-path="url(#undo-clip)"/>
<path d="M13.9247 2.50391C14.7225 2.50391 15.4607 2.92638 15.8647 3.61428L16.6793 5.00086H18.75C20.5449 5.00086 22 6.45593 22 8.25086V17.7509C22 19.5458 20.5449 21.0009 18.75 21.0009H5.25C3.45507 21.0009 2 19.5458 2 17.7509V8.25086C2 6.45593 3.45507 5.00086 5.25 5.00086H7.33042L8.205 3.57656C8.61425 2.91006 9.34026 2.50391 10.1224 2.50391H13.9247ZM13.9247 4.00391H10.1224C9.89892 4.00391 9.6892 4.10337 9.54793 4.2717L9.48325 4.36146L8.38913 6.14331C8.25271 6.36547 8.01071 6.50086 7.75 6.50086H5.25C4.2835 6.50086 3.5 7.28436 3.5 8.25086V17.7509C3.5 18.7174 4.2835 19.5009 5.25 19.5009H18.75C19.7165 19.5009 20.5 18.7174 20.5 17.7509V8.25086C20.5 7.28436 19.7165 6.50086 18.75 6.50086H16.25C15.9841 6.50086 15.738 6.36003 15.6033 6.13073L14.5714 4.37403C14.4367 4.14473 14.1906 4.00391 13.9247 4.00391ZM12 8.00086C14.4853 8.00086 16.5 10.0156 16.5 12.5009C16.5 14.9861 14.4853 17.0009 12 17.0009C9.51472 17.0009 7.5 14.9861 7.5 12.5009C7.5 10.0156 9.51472 8.00086 12 8.00086ZM12 9.50086C10.3431 9.50086 9 10.844 9 12.5009C9 14.1577 10.3431 15.5009 12 15.5009C13.6569 15.5009 15 14.1577 15 12.5009C15 10.844 13.6569 9.50086 12 9.50086Z" fill="currentColor"/>
<g transform="translate(-2, 12) scale(0.5)">
<path d="M20.22,21a1,1,0,0,1-1-.76,8.91,8.91,0,0,0-7.8-6.69v1.12a1.78,1.78,0,0,1-1.09,1.64A2,2,0,0,1,8.18,16L3.12,11.59a1.76,1.76,0,0,1,0-2.68L8.18,4.49a2,2,0,0,1,2.18-.3,1.78,1.78,0,0,1,1.09,1.64V7A10.89,10.89,0,0,1,21.5,17.75a10.29,10.29,0,0,1-.31,2.49,1,1,0,0,1-1,.76Zm-9.77-9.5a11.07,11.07,0,0,1,8.81,4.26A9,9,0,0,0,10.45,9a1,1,0,0,1-1-1V6.08L4.63,10.25l4.82,4.21v-2A1,1,0,0,1,10.45,11.5Z" fill="var(--color-surface-elevated, #1a1a1a)"/>
</g>
<g transform="translate(-2, 12) scale(0.5)">
<path d="M20.22,21a1,1,0,0,1-1-.76,8.91,8.91,0,0,0-7.8-6.69v1.12a1.78,1.78,0,0,1-1.09,1.64A2,2,0,0,1,8.18,16L3.12,11.59a1.76,1.76,0,0,1,0-2.68L8.18,4.49a2,2,0,0,1,2.18-.3,1.78,1.78,0,0,1,1.09,1.64V7A10.89,10.89,0,0,1,21.5,17.75a10.29,10.29,0,0,1-.31,2.49,1,1,0,0,1-1,.76Zm-9.77-9.5a11.07,11.07,0,0,1,8.81,4.26A9,9,0,0,0,10.45,9a1,1,0,0,1-1-1V6.08L4.63,10.25l4.82,4.21v-2A1,1,0,0,1,10.45,11.5Z" fill="none" stroke="currentColor" stroke-width="0.5"/>
</g>
</svg>
