<svg xmlns="http://www.w3.org/2000/svg" width="16" height="16" fill="currentColor" viewBox="0 0 16 16">
  <path d="M2 2a1 1 0 0 0-1 1v2a.5.5 0 0 1-1 0V3a2 2 0 0 1 2-2h2a.5.5 0 0 1 0 1H2zm10-1a1 1 0 0 1 1 1v2a.5.5 0 0 0 1 0V2a2 2 0 0 0-2-2h-2a.5.5 0 0 0 0 1h2zM2 14a1 1 0 0 1-1-1v-2a.5.5 0 0 0-1 0v2a2 2 0 0 0 2 2h2a.5.5 0 0 0 0-1H2zm12 0a1 1 0 0 0 1-1v-2a.5.5 0 0 1 1 0v2a2 2 0 0 1-2 2h-2a.5.5 0 0 1 0-1h2z"/>
  <path d="M4 7.5a.5.5 0 0 1 .5-.5h7a.5.5 0 0 1 0 1h-7a.5.5 0 0 1-.5-.5z"/>
  <path d="M4 9.5a.5.5 0 0 1 .5-.5h5a.5.5 0 0 1 0 1h-5a.5.5 0 0 1-.5-.5z"/>
</svg>
